# Blender 4.1.0
# www.blender.org
mtllib antennaRod.mtl
o Cube
v 0.000000 0.100000 -1.000000
v 0.100000 0.000000 -1.000000
v 0.015643 0.098769 -1.000000
v 0.030902 0.095106 -1.000000
v 0.045399 0.089101 -1.000000
v 0.058779 0.080902 -1.000000
v 0.070711 0.070711 -1.000000
v 0.080902 0.058779 -1.000000
v 0.089101 0.045399 -1.000000
v 0.095106 0.030902 -1.000000
v 0.098769 0.015643 -1.000000
v 0.100000 0.000000 -1.000000
v 0.000000 -0.100000 -1.000000
v 0.098769 -0.015643 -1.000000
v 0.095106 -0.030902 -1.000000
v 0.089101 -0.045399 -1.000000
v 0.080902 -0.058779 -1.000000
v 0.070711 -0.070711 -1.000000
v 0.058779 -0.080902 -1.000000
v 0.045399 -0.089101 -1.000000
v 0.030902 -0.095106 -1.000000
v 0.015643 -0.098769 -1.000000
v 0.100000 0.000000 1.000000
v 0.000000 0.100000 1.000000
v 0.098769 0.015643 1.000000
v 0.095106 0.030902 1.000000
v 0.089101 0.045399 1.000000
v 0.080902 0.058779 1.000000
v 0.070711 0.070711 1.000000
v 0.058779 0.080902 1.000000
v 0.045399 0.089101 1.000000
v 0.030902 0.095106 1.000000
v 0.015643 0.098769 1.000000
v 0.000000 -0.100000 1.000000
v 0.100000 0.000000 1.000000
v 0.015643 -0.098769 1.000000
v 0.030902 -0.095106 1.000000
v 0.045399 -0.089101 1.000000
v 0.058779 -0.080902 1.000000
v 0.070711 -0.070711 1.000000
v 0.080902 -0.058779 1.000000
v 0.089101 -0.045399 1.000000
v 0.095106 -0.030902 1.000000
v 0.098769 -0.015643 1.000000
v -0.100000 0.000000 -1.000000
v 0.000000 0.100000 -1.000000
v -0.098769 0.015643 -1.000000
v -0.095106 0.030902 -1.000000
v -0.089101 0.045399 -1.000000
v -0.080902 0.058779 -1.000000
v -0.070711 0.070711 -1.000000
v -0.058779 0.080902 -1.000000
v -0.045399 0.089101 -1.000000
v -0.030902 0.095106 -1.000000
v -0.015643 0.098769 -1.000000
v 0.000000 -0.100000 -1.000000
v -0.100000 0.000000 -1.000000
v -0.015643 -0.098769 -1.000000
v -0.030902 -0.095106 -1.000000
v -0.045399 -0.089101 -1.000000
v -0.058779 -0.080902 -1.000000
v -0.070711 -0.070711 -1.000000
v -0.080902 -0.058779 -1.000000
v -0.089101 -0.045399 -1.000000
v -0.095106 -0.030902 -1.000000
v -0.098769 -0.015643 -1.000000
v 0.000000 0.100000 1.000000
v -0.100000 0.000000 1.000000
v -0.015643 0.098769 1.000000
v -0.030902 0.095106 1.000000
v -0.045399 0.089101 1.000000
v -0.058779 0.080902 1.000000
v -0.070711 0.070711 1.000000
v -0.080902 0.058779 1.000000
v -0.089101 0.045399 1.000000
v -0.095106 0.030902 1.000000
v -0.098769 0.015643 1.000000
v -0.100000 0.000000 1.000000
v 0.000000 -0.100000 1.000000
v -0.098769 -0.015643 1.000000
v -0.095106 -0.030902 1.000000
v -0.089101 -0.045399 1.000000
v -0.080902 -0.058779 1.000000
v -0.070711 -0.070711 1.000000
v -0.058779 -0.080902 1.000000
v -0.045399 -0.089101 1.000000
v -0.030902 -0.095106 1.000000
v -0.015643 -0.098769 1.000000
vn -0.0000 1.0000 -0.0000
vn -0.0000 -0.0000 1.0000
vn -0.0785 -0.9969 -0.0000
vn -0.2334 -0.9724 -0.0000
vn -0.3827 -0.9239 -0.0000
vn -0.5225 -0.8526 -0.0000
vn -0.6494 -0.7604 -0.0000
vn -0.7604 -0.6494 -0.0000
vn -0.8526 -0.5225 -0.0000
vn -0.9239 -0.3827 -0.0000
vn -0.9724 -0.2334 -0.0000
vn -0.9969 -0.0785 -0.0000
vn 0.0785 0.9969 -0.0000
vn 0.2334 0.9724 -0.0000
vn 0.3827 0.9239 -0.0000
vn 0.5225 0.8526 -0.0000
vn 0.6494 0.7604 -0.0000
vn 0.7604 0.6494 -0.0000
vn 0.8526 0.5225 -0.0000
vn 0.9239 0.3827 -0.0000
vn 0.9724 0.2334 -0.0000
vn 0.9969 0.0785 -0.0000
vn -0.0785 0.9969 -0.0000
vn -0.2334 0.9724 -0.0000
vn -0.3827 0.9239 -0.0000
vn -0.5225 0.8526 -0.0000
vn -0.6494 0.7604 -0.0000
vn -0.7604 0.6494 -0.0000
vn -0.8526 0.5225 -0.0000
vn -0.9239 0.3827 -0.0000
vn -0.9724 0.2334 -0.0000
vn -0.9969 0.0785 -0.0000
vn 0.0785 -0.9969 -0.0000
vn 0.2334 -0.9724 -0.0000
vn 0.3827 -0.9239 -0.0000
vn 0.5225 -0.8526 -0.0000
vn 0.6494 -0.7604 -0.0000
vn 0.7604 -0.6494 -0.0000
vn 0.8526 -0.5225 -0.0000
vn 0.9239 -0.3827 -0.0000
vn 0.9724 -0.2334 -0.0000
vn 0.9969 -0.0785 -0.0000
vn -0.0000 -0.0000 -1.0000
vt 0.250000 0.500000
vt 0.250000 0.750000
vt 0.500000 0.000000
vt 0.500000 0.250000
vt 0.375000 0.875000
vt 0.376539 0.855446
vt 0.381118 0.836373
vt 0.388624 0.818251
vt 0.398873 0.801527
vt 0.411612 0.786612
vt 0.426527 0.773873
vt 0.443251 0.763624
vt 0.461373 0.756118
vt 0.480446 0.751539
vt 0.500000 0.750000
vt 0.519554 0.751539
vt 0.538627 0.756118
vt 0.556749 0.763624
vt 0.573473 0.773873
vt 0.588388 0.786612
vt 0.601127 0.801527
vt 0.611376 0.818251
vt 0.618882 0.836373
vt 0.623461 0.855446
vt 0.625000 0.875000
vt 0.623461 0.894554
vt 0.618882 0.913627
vt 0.611376 0.931749
vt 0.601127 0.948473
vt 0.588388 0.963388
vt 0.573473 0.976127
vt 0.556749 0.986376
vt 0.538627 0.993882
vt 0.519554 0.998461
vt 0.500000 1.000000
vt 0.480446 0.998461
vt 0.461373 0.993882
vt 0.443251 0.986376
vt 0.426527 0.976127
vt 0.411612 0.963388
vt 0.398873 0.948473
vt 0.388624 0.931749
vt 0.381118 0.913627
vt 0.376539 0.894554
vt 0.750000 0.500000
vt 0.750000 0.750000
vt 0.500000 0.500000
vt 0.230446 0.750000
vt 0.230446 0.500000
vt 0.211373 0.750000
vt 0.211373 0.500000
vt 0.193251 0.750000
vt 0.193251 0.500000
vt 0.176527 0.750000
vt 0.176527 0.500000
vt 0.125000 0.750000
vt 0.125000 0.500000
vt 0.375000 0.250000
vt 0.375000 0.000000
vt 0.426527 0.000000
vt 0.426527 0.250000
vt 0.443251 0.000000
vt 0.443251 0.250000
vt 0.461373 0.000000
vt 0.461373 0.250000
vt 0.480446 0.000000
vt 0.480446 0.250000
vt 0.730446 0.750000
vt 0.730446 0.500000
vt 0.711373 0.750000
vt 0.711373 0.500000
vt 0.693251 0.750000
vt 0.693251 0.500000
vt 0.676527 0.750000
vt 0.676527 0.500000
vt 0.625000 0.750000
vt 0.625000 0.500000
vt 0.573473 0.750000
vt 0.573473 0.500000
vt 0.556749 0.750000
vt 0.556749 0.500000
vt 0.538627 0.750000
vt 0.538627 0.500000
vt 0.519554 0.750000
vt 0.519554 0.500000
vt 0.769554 0.500000
vt 0.769554 0.750000
vt 0.788627 0.500000
vt 0.788627 0.750000
vt 0.806749 0.500000
vt 0.806749 0.750000
vt 0.823473 0.500000
vt 0.823473 0.750000
vt 0.875000 0.500000
vt 0.875000 0.750000
vt 0.625000 0.000000
vt 0.625000 0.250000
vt 0.573473 0.250000
vt 0.573473 0.000000
vt 0.556749 0.250000
vt 0.556749 0.000000
vt 0.538627 0.250000
vt 0.538627 0.000000
vt 0.519554 0.250000
vt 0.519554 0.000000
vt 0.269554 0.500000
vt 0.269554 0.750000
vt 0.288627 0.500000
vt 0.288627 0.750000
vt 0.306749 0.500000
vt 0.306749 0.750000
vt 0.323473 0.500000
vt 0.323473 0.750000
vt 0.375000 0.500000
vt 0.375000 0.750000
vt 0.426527 0.500000
vt 0.426527 0.750000
vt 0.443251 0.500000
vt 0.443251 0.750000
vt 0.461373 0.500000
vt 0.461373 0.750000
vt 0.480446 0.500000
vt 0.480446 0.750000
vt 0.375000 0.375000
vt 0.376539 0.355446
vt 0.381118 0.336373
vt 0.388624 0.318251
vt 0.398873 0.301527
vt 0.411612 0.286612
vt 0.426527 0.273873
vt 0.443251 0.263624
vt 0.461373 0.256118
vt 0.480446 0.251539
vt 0.519554 0.251539
vt 0.538627 0.256118
vt 0.556749 0.263624
vt 0.573473 0.273873
vt 0.588388 0.286612
vt 0.601127 0.301527
vt 0.611376 0.318251
vt 0.618882 0.336373
vt 0.623461 0.355446
vt 0.625000 0.375000
vt 0.623461 0.394554
vt 0.618882 0.413627
vt 0.611376 0.431749
vt 0.601127 0.448473
vt 0.588388 0.463388
vt 0.573473 0.476127
vt 0.556749 0.486376
vt 0.538627 0.493882
vt 0.519554 0.498461
vt 0.480446 0.498461
vt 0.461373 0.493882
vt 0.443251 0.486376
vt 0.426527 0.476127
vt 0.411612 0.463388
vt 0.398873 0.448473
vt 0.388624 0.431749
vt 0.381118 0.413627
vt 0.376539 0.394554
s 0
usemtl Material
f 56/1/1 13/1/1 34/2/1 79/2/1
f 78/3/1 68/3/1 45/4/1 57/4/1
f 34/5/2 36/6/2 37/7/2 38/8/2 39/9/2 40/10/2 41/11/2 42/12/2 43/13/2 44/14/2 35/15/2 23/15/2 25/16/2 26/17/2 27/18/2 28/19/2 29/20/2 30/21/2 31/22/2 32/23/2 33/24/2 24/25/2 67/25/2 69/26/2 70/27/2 71/28/2 72/29/2 73/30/2 74/31/2 75/32/2 76/33/2 77/34/2 68/35/2 78/35/2 80/36/2 81/37/2 82/38/2 83/39/2 84/40/2 85/41/2 86/42/2 87/43/2 88/44/2 79/5/2
f 1/45/1 46/45/1 67/46/1 24/46/1
f 12/47/1 2/47/1 23/15/1 35/15/1
f 56/1/3 79/2/3 88/48/3 58/49/3
f 58/49/4 88/48/4 87/50/4 59/51/4
f 59/51/5 87/50/5 86/52/5 60/53/5
f 60/53/6 86/52/6 85/54/6 61/55/6
f 61/55/7 85/54/7 84/56/7 62/57/7
f 62/58/8 84/59/8 83/60/8 63/61/8
f 63/61/9 83/60/9 82/62/9 64/63/9
f 64/63/10 82/62/10 81/64/10 65/65/10
f 65/65/11 81/64/11 80/66/11 66/67/11
f 66/67/12 80/66/12 78/3/12 57/4/12
f 1/45/13 24/46/13 33/68/13 3/69/13
f 3/69/14 33/68/14 32/70/14 4/71/14
f 4/71/15 32/70/15 31/72/15 5/73/15
f 5/73/16 31/72/16 30/74/16 6/75/16
f 6/75/17 30/74/17 29/76/17 7/77/17
f 7/77/18 29/76/18 28/78/18 8/79/18
f 8/79/19 28/78/19 27/80/19 9/81/19
f 9/81/20 27/80/20 26/82/20 10/83/20
f 10/83/21 26/82/21 25/84/21 11/85/21
f 11/85/22 25/84/22 23/15/22 2/47/22
f 67/46/23 46/45/23 55/86/23 69/87/23
f 69/87/24 55/86/24 54/88/24 70/89/24
f 70/89/25 54/88/25 53/90/25 71/91/25
f 71/91/26 53/90/26 52/92/26 72/93/26
f 72/93/27 52/92/27 51/94/27 73/95/27
f 73/96/28 51/97/28 50/98/28 74/99/28
f 74/99/29 50/98/29 49/100/29 75/101/29
f 75/101/30 49/100/30 48/102/30 76/103/30
f 76/103/31 48/102/31 47/104/31 77/105/31
f 77/105/32 47/104/32 45/4/32 68/3/32
f 34/2/33 13/1/33 22/106/33 36/107/33
f 36/107/34 22/106/34 21/108/34 37/109/34
f 37/109/35 21/108/35 20/110/35 38/111/35
f 38/111/36 20/110/36 19/112/36 39/113/36
f 39/113/37 19/112/37 18/114/37 40/115/37
f 40/115/38 18/114/38 17/116/38 41/117/38
f 41/117/39 17/116/39 16/118/39 42/119/39
f 42/119/40 16/118/40 15/120/40 43/121/40
f 43/121/41 15/120/41 14/122/41 44/123/41
f 44/123/42 14/122/42 12/47/42 35/15/42
f 56/124/43 58/125/43 59/126/43 60/127/43 61/128/43 62/129/43 63/130/43 64/131/43 65/132/43 66/133/43 57/4/43 45/4/43 47/134/43 48/135/43 49/136/43 50/137/43 51/138/43 52/139/43 53/140/43 54/141/43 55/142/43 46/143/43 1/143/43 3/144/43 4/145/43 5/146/43 6/147/43 7/148/43 8/149/43 9/150/43 10/151/43 11/152/43 2/47/43 12/47/43 14/153/43 15/154/43 16/155/43 17/156/43 18/157/43 19/158/43 20/159/43 21/160/43 22/161/43 13/124/43
