# Blender 4.1.0
# www.blender.org
mtllib connector.mtl
o Cube
v 0.100000 0.100000 1.000000
v 0.100000 0.100000 -1.000000
v 0.100000 -0.100000 1.000000
v 0.100000 -0.100000 -1.000000
v -0.100000 0.100000 1.000000
v -0.100000 0.100000 -1.000000
v -0.100000 -0.100000 1.000000
v -0.100000 -0.100000 -1.000000
vn -0.0000 -0.0000 1.0000
vn -0.0000 -1.0000 -0.0000
vn -1.0000 -0.0000 -0.0000
vn -0.0000 -0.0000 -1.0000
vn 1.0000 -0.0000 -0.0000
vn -0.0000 1.0000 -0.0000
vt 0.625000 0.500000
vt 0.875000 0.500000
vt 0.875000 0.750000
vt 0.625000 0.750000
vt -0.098786 0.811441
vt 1.105453 0.811441
vt 1.105453 1.122882
vt -0.098786 1.122882
vt -0.098786 -0.122882
vt 1.105453 -0.122882
vt 1.105453 0.188559
vt -0.098786 0.188559
vt 0.125000 0.500000
vt 0.375000 0.500000
vt 0.375000 0.750000
vt 0.125000 0.750000
vt -0.098786 0.500000
vt 1.105453 0.500000
s 0
usemtl Material
f 1/1/1 5/2/1 7/3/1 3/4/1
f 4/5/2 3/6/2 7/7/2 8/8/2
f 8/9/3 7/10/3 5/11/3 6/12/3
f 6/13/4 2/14/4 4/15/4 8/16/4
f 2/17/5 1/18/5 3/6/5 4/5/5
f 6/12/6 5/11/6 1/18/6 2/17/6
