# Blender 4.1.0
# www.blender.org
mtllib solarPanel.mtl
o Cube
v 1.000000 0.020000 2.500000
v 1.000000 0.020000 -2.500000
v 1.000000 -0.020000 2.500000
v 1.000000 -0.020000 -2.500000
v -1.000000 0.020000 2.500000
v -1.000000 0.020000 -2.500000
v -1.000000 -0.020000 2.500000
v -1.000000 -0.020000 -2.500000
vn -0.0000 -0.0000 1.0000
vn -0.0000 -1.0000 -0.0000
vn -1.0000 -0.0000 -0.0000
vn -0.0000 -0.0000 -1.0000
vn 1.0000 -0.0000 -0.0000
vn -0.0000 1.0000 -0.0000
vt 0.840034 0.447083
vt 1.510656 0.447083
vt 1.510656 1.117706
vt 0.840034 1.117706
vt 0.164689 1.110147
vt 0.835311 1.110147
vt 0.835311 1.780769
vt 0.164689 1.780769
vt 0.169411 -0.894162
vt 0.840034 -0.894162
vt 0.840034 -0.223539
vt 0.169411 -0.223539
vt -0.501212 0.447083
vt 0.169411 0.447083
vt 0.169411 1.117706
vt -0.501212 1.117706
vt 0.164689 -0.223539
vt 0.835311 -0.223539
vt 0.835311 0.447083
vt 0.164689 0.447083
s 0
usemtl Material
f 1/1/1 5/2/1 7/3/1 3/4/1
f 4/5/2 3/6/2 7/7/2 8/8/2
f 8/9/3 7/10/3 5/11/3 6/12/3
f 6/13/4 2/14/4 4/15/4 8/16/4
f 2/14/5 1/1/5 3/4/5 4/15/5
f 6/17/6 5/18/6 1/19/6 2/20/6
